<svg width="39" height="111" viewBox="0 0 39 111" fill="none" xmlns="http://www.w3.org/2000/svg">
<path d="M8.92987 21.7158C8.92987 28.8903 13.4806 34.138 17.5803 34.712C21.0241 35.204 23.238 32.5391 24.7139 28.7673C27.0098 33.3181 31.1095 36.5569 34.6763 33.974C36.3162 32.7851 37.0542 30.9402 37.0542 28.9723C37.0542 24.9546 34.0613 20.4039 29.7156 19.6659C29.5106 19.6249 29.2236 19.7069 29.2236 20.0349C29.2236 20.1169 29.2236 20.1989 29.2646 20.2809C31.9705 21.5518 34.0203 24.7086 34.0203 27.3324C34.0203 28.5624 33.5694 29.7103 32.5444 30.4482C29.4696 32.6621 25.2879 28.6854 23.197 22.8637C23.074 22.5357 22.5 22.4537 22.2541 22.6997C22.2951 22.9047 22.2951 23.1507 22.2951 23.3967C22.2951 27.1274 19.4662 31.2682 16.1454 31.2272C13.1526 31.2272 11.1027 28.0294 11.1027 25.2416C11.1027 22.5767 12.7426 20.1169 14.2595 19.0919C13.3166 15.2382 8.92987 14.7052 8.92987 21.7158ZM23.074 43.2821C14.8335 42.1341 8.92987 44.389 8.92987 50.4976C8.92987 56.5653 14.8335 60.624 23.074 61.7719C31.3145 62.9199 37.2181 60.542 37.2181 54.4744C37.2181 48.3658 31.3145 44.43 23.074 43.2821ZM23.115 47.3818C30.2486 48.4068 35.6192 50.5796 35.6192 54.3104C35.6192 58.0412 30.2486 58.6971 23.115 57.6722C15.9404 56.6883 10.5288 54.5154 10.5288 50.7846C10.5288 47.0538 15.9404 46.3979 23.115 47.3818ZM28.9776 70.342C24.1809 69.6861 20.7371 71.7769 20.7371 75.2617C20.7371 78.7055 24.1809 81.8213 28.9776 82.4773C33.7744 83.1743 37.2181 81.0424 37.2181 77.5986C37.2181 74.1138 33.7744 71.039 28.9776 70.342ZM29.0186 73.9088C33.2004 74.5238 35.9062 75.3027 35.9062 77.3936C35.9062 79.5255 33.2004 79.5255 29.0186 78.9105C24.7959 78.3365 22.0491 77.5986 22.0491 75.4667C22.0491 73.3758 24.7959 73.3348 29.0186 73.9088ZM17.1704 86.618C12.3737 85.9211 8.92987 88.053 8.92987 91.5377C8.92987 94.9815 12.3737 98.0563 17.1704 98.7533C21.9671 99.4093 25.4109 97.2774 25.4109 93.8336C25.4109 90.3488 21.9671 87.274 17.1704 86.618ZM17.2114 90.1848C21.3931 90.7588 24.0989 91.5787 24.0989 93.6696C24.0989 95.8015 21.3931 95.7605 17.2114 95.1865C12.9886 94.6126 10.2418 93.8336 10.2418 91.7017C10.2418 89.6109 12.9886 89.6109 17.2114 90.1848ZM38.0381 93.9156L8.10992 72.8429L8.10992 75.2617L38.0381 96.3345L38.0381 93.9156Z" fill="#ABADAE"/>
<path d="M12.2333 0.811642C10.2106 0.811642 8.5625 1.89041 8.36772 3.32877C7.9482 6.26541 13.1622 6.49015 12.8176 8.99229C12.6678 10.0111 11.6789 10.5655 10.5253 10.5655C8.78724 10.5655 8.24786 9.29195 7.72346 7.8536C7.70848 7.8536 7.69349 7.8536 7.69349 7.8536C7.49872 7.8536 7.3339 7.97346 7.30394 8.12329C7.19906 8.82748 7.15411 9.57663 7.28896 10.161C7.75342 10.6554 8.83219 11.1498 10.3305 11.1498C12.6079 11.1498 14.0313 10.0111 14.211 8.67765C14.6306 5.47132 9.32663 5.47132 9.67123 2.95419C9.82106 1.92038 10.8699 1.39597 11.7089 1.39597C12.9824 1.39597 13.5967 2.5946 14.1661 3.59846C14.3609 3.59846 14.4508 3.50856 14.4957 3.31378C14.5557 2.90925 14.6156 1.84546 14.3908 1.48587C14.1062 1.21618 13.4769 0.811642 12.2333 0.811642ZM16.7751 7.8536C16.2207 9.8613 16.6702 11.1498 18.0636 11.1498C19.2173 11.1498 20.1163 9.72646 20.8954 8.34803L20.7306 9.48673C20.5957 10.4906 20.8654 11.0599 21.3449 11.0599C21.8094 11.0599 22.4836 10.5505 23.1728 9.41181C23.3376 9.14212 23.2177 9.09717 23.023 8.94735C22.5585 9.59161 22.2289 9.87628 22.0641 9.87628C21.9142 9.87628 21.8543 9.68151 21.9142 9.32192L22.5435 4.82705C21.8243 4.48245 21.3299 4.2577 20.2961 4.2577C18.603 4.2577 17.3445 5.83091 16.7751 7.8536ZM18.3783 10.4906C18.3483 10.4906 18.3333 10.4906 18.3034 10.4906C17.3445 10.4906 17.749 8.64769 18.1385 7.50899C18.6929 5.87586 19.5619 4.72217 20.2811 4.72217C20.6257 4.72217 21.0003 4.84204 21.3299 5.18664L21.0752 7.0595C20.4159 8.30308 19.2473 10.4157 18.3783 10.4906ZM25.9767 9.57663C25.8419 10.5805 26.1115 11.1498 26.591 11.1498C27.0555 11.1498 27.7147 10.6404 28.4189 9.50171C28.5837 9.23202 28.4639 9.18707 28.2691 9.03724C27.8046 9.68151 27.49 9.96618 27.3102 9.96618C27.1603 9.96618 27.1154 9.7714 27.1603 9.41181L28.2092 1.93536C28.344 0.931505 28.0743 0.362156 27.5949 0.362156C27.1304 0.362156 26.4562 0.871573 25.7669 2.01027C25.6021 2.27996 25.722 2.32491 25.9168 2.47474C26.3812 1.83048 26.7109 1.5458 26.8757 1.5458C27.0255 1.5458 27.0854 1.74058 27.0255 2.10017L25.9767 9.57663ZM30.8656 7.8536C30.5809 9.87628 31.4499 11.1498 33.1879 11.1498C34.3716 11.1498 35.4054 10.4007 36.0047 9.23202C36.1096 9.02226 35.8399 8.84247 35.6751 8.85745C35.1806 9.68151 34.6263 10.3408 33.6224 10.3408C32.6635 10.3408 32.1091 9.62158 32.0792 8.45291C33.2029 8.33305 35.4803 7.88356 36.1096 6.14555C36.4242 5.26156 36.2294 4.2577 34.6862 4.2577C32.6485 4.2577 31.1203 5.89084 30.8656 7.8536ZM34.821 6.08562C34.4615 7.19435 33.2778 7.62885 32.1091 7.88356C32.1091 7.82363 32.1091 7.77868 32.1241 7.71875C32.3189 6.32534 33.0531 4.72217 34.1169 4.72217C34.9709 4.72217 35.0308 5.4863 34.821 6.08562Z" fill="#ABADAE"/>
<path d="M8.625 106.978L8.98459 103.855H9.97089C10.1353 103.865 10.2586 103.639 10.2072 103.496H9.02569L9.14897 102.417C9.25171 101.533 9.34418 101.102 9.67295 100.999C9.72432 100.978 9.76541 100.978 9.81678 100.978C10.1866 100.978 10.5257 101.461 10.7825 101.821C11.4503 101.451 11.0908 100.609 10.125 100.609C8.70719 100.609 8.31678 102.026 8.19349 103.208L8.16267 103.496H7.47432C7.34075 103.496 7.19692 103.691 7.25856 103.855H8.12158L7.71062 107.759C7.60788 108.633 7.57705 109.002 7.22774 109.136C7.17637 109.157 7.13527 109.167 7.0839 109.167C6.74486 109.167 6.43664 108.684 6.25171 108.355C5.5839 108.735 5.87158 109.578 6.73459 109.578C8.05993 109.578 8.50171 108.057 8.625 106.978ZM12.714 108.119C13.9263 108.119 14.9023 107.04 15.0975 105.653C15.2927 104.266 14.5838 103.393 13.3715 103.393C12.1592 103.393 11.1523 104.472 10.9674 105.859C10.7722 107.246 11.5016 108.119 12.714 108.119ZM12.7242 107.811C11.9331 107.811 11.7174 106.917 11.8509 105.787C11.9537 104.985 12.3236 103.701 13.3407 103.701C14.1215 103.701 14.3372 104.605 14.2037 105.725C14.1112 106.537 13.7414 107.811 12.7242 107.811ZM16.89 104.831C17.2188 104.389 17.4345 104.194 17.5578 104.194C17.6606 104.194 17.6914 104.328 17.6606 104.574L17.1777 107.996C17.1674 108.088 17.2701 108.119 17.414 108.119C17.5784 108.119 17.7941 108.078 17.9688 108.006L18.164 106.578C18.3695 105.746 19.0989 104.133 19.4996 104.133C19.7667 104.133 19.9414 104.379 20.0647 104.574C20.7119 104.102 20.6503 103.383 19.9619 103.383C19.3558 103.383 18.7599 104.328 18.3489 105.252L18.4619 104.461C18.5647 103.773 18.3797 103.383 18.0407 103.383C17.7325 103.383 17.2701 103.732 16.7975 104.513C16.6743 104.698 16.7667 104.728 16.89 104.831ZM25.7582 105.859C25.3781 107.235 25.6863 108.119 26.6418 108.119C27.4329 108.119 28.0493 107.143 28.5836 106.198L28.4705 106.978C28.3781 107.667 28.563 108.057 28.8918 108.057C29.2103 108.057 29.6726 107.708 30.1452 106.927C30.2582 106.742 30.176 106.711 30.0425 106.609C29.724 107.05 29.4979 107.246 29.3849 107.246C29.2822 107.246 29.2411 107.112 29.2822 106.865L29.7137 103.783C29.2205 103.547 28.8815 103.393 28.1726 103.393C27.0116 103.393 26.1486 104.472 25.7582 105.859ZM26.8575 107.667C26.837 107.667 26.8267 107.667 26.8062 107.667C26.1486 107.667 26.426 106.403 26.6931 105.622C27.0733 104.502 27.6692 103.711 28.1623 103.711C28.3986 103.711 28.6555 103.794 28.8815 104.03L28.7068 105.314C28.2548 106.167 27.4534 107.615 26.8575 107.667ZM32.0679 107.04C31.9754 107.728 32.1603 108.119 32.4891 108.119C32.8076 108.119 33.2597 107.77 33.7425 106.989C33.8556 106.804 33.7734 106.773 33.6398 106.67C33.3213 107.112 33.1056 107.307 32.9823 107.307C32.8795 107.307 32.8487 107.174 32.8795 106.927L33.5987 101.8C33.6912 101.112 33.5062 100.722 33.1775 100.722C32.859 100.722 32.3966 101.071 31.924 101.852C31.811 102.037 31.8932 102.067 32.0268 102.17C32.3453 101.728 32.5713 101.533 32.6843 101.533C32.7871 101.533 32.8282 101.667 32.7871 101.913L32.0679 107.04ZM35.8107 107.04C35.7182 107.728 35.9031 108.119 36.2319 108.119C36.5504 108.119 37.0024 107.77 37.4853 106.989C37.5983 106.804 37.5161 106.773 37.3826 106.67C37.0641 107.112 36.8483 107.307 36.725 107.307C36.6223 107.307 36.5915 107.174 36.6223 106.927L37.3415 101.8C37.4339 101.112 37.249 100.722 36.9202 100.722C36.6018 100.722 36.1394 101.071 35.6668 101.852C35.5538 102.037 35.636 102.067 35.7696 102.17C36.0881 101.728 36.3141 101.533 36.4271 101.533C36.5298 101.533 36.5709 101.667 36.5298 101.913L35.8107 107.04Z" fill="#ABADAE"/>
</svg>
